<svg width="143" height="23" viewBox="0 0 143 23" fill="none" xmlns="http://www.w3.org/2000/svg">
<path d="M7.21469 21.816C6.43069 21.816 5.72669 21.768 5.10269 21.672C4.47869 21.592 3.95069 21.432 3.51869 21.192C3.08669 20.968 2.75869 20.632 2.53469 20.184C2.31069 19.736 2.19869 19.16 2.19869 18.456V13.536C2.19869 13.184 2.08669 12.904 1.86269 12.696C1.65469 12.488 1.38269 12.344 1.04669 12.264C0.710688 12.168 0.366688 12.12 0.0146876 12.12V10.032C0.366688 10.032 0.702688 9.992 1.02269 9.912C1.35869 9.816 1.63869 9.664 1.86269 9.456C2.08669 9.232 2.19869 8.952 2.19869 8.616V3.72C2.19869 3 2.31069 2.424 2.53469 1.992C2.75869 1.544 3.08669 1.2 3.51869 0.959999C3.96669 0.719999 4.50269 0.559999 5.12669 0.48C5.75069 0.4 6.44669 0.36 7.21469 0.36V2.184C6.91069 2.184 6.59069 2.224 6.25469 2.304C5.91869 2.368 5.63069 2.504 5.39069 2.712C5.15069 2.904 5.02269 3.2 5.00669 3.6L4.81469 8.4C4.79869 9.2 4.58269 9.832 4.16669 10.296C3.76669 10.744 3.08669 10.968 2.12669 10.968V11.208C2.76669 11.208 3.27869 11.312 3.66269 11.52C4.04669 11.712 4.32669 12 4.50269 12.384C4.69469 12.768 4.79869 13.224 4.81469 13.752L5.00669 18.552C5.02269 18.952 5.14269 19.248 5.36669 19.44C5.60669 19.648 5.89469 19.784 6.23069 19.848C6.56669 19.928 6.89469 19.968 7.21469 19.968V21.816ZM135.795 0.36C136.563 0.36 137.259 0.408 137.883 0.503999C138.507 0.583999 139.035 0.743999 139.467 0.983999C139.915 1.208 140.251 1.544 140.475 1.992C140.699 2.44 140.811 3.016 140.811 3.72V8.64C140.811 8.976 140.915 9.256 141.123 9.48C141.347 9.688 141.627 9.84 141.963 9.936C142.315 10.016 142.659 10.056 142.995 10.056V12.144C142.659 12.144 142.323 12.192 141.987 12.288C141.651 12.368 141.371 12.512 141.147 12.72C140.923 12.928 140.811 13.208 140.811 13.56V18.456C140.811 19.16 140.691 19.736 140.451 20.184C140.227 20.632 139.899 20.976 139.467 21.216C139.035 21.456 138.507 21.616 137.883 21.696C137.259 21.776 136.563 21.816 135.795 21.816V19.992C136.099 19.992 136.419 19.952 136.755 19.872C137.091 19.808 137.379 19.672 137.619 19.464C137.859 19.256 137.987 18.96 138.003 18.576L138.195 13.776C138.227 12.976 138.443 12.352 138.843 11.904C139.243 11.44 139.923 11.208 140.883 11.208V10.968C140.243 10.968 139.731 10.872 139.347 10.68C138.963 10.472 138.675 10.176 138.483 9.792C138.307 9.408 138.211 8.952 138.195 8.424L138.003 3.624C137.987 3.224 137.859 2.928 137.619 2.736C137.395 2.528 137.115 2.392 136.779 2.328C136.459 2.248 136.131 2.208 135.795 2.208V0.36Z" fill="#2F5EA5"/>
<path d="M13.3315 18L19.6675 1.536H24.0835L30.4195 18H26.5555L25.3795 14.76H18.2035L17.0275 18H13.3315ZM19.2355 11.88H24.3475L22.8835 7.824C22.8195 7.648 22.7395 7.44 22.6435 7.2C22.5635 6.944 22.4755 6.664 22.3795 6.36C22.2835 6.056 22.1875 5.76 22.0915 5.472C22.0115 5.168 21.9315 4.896 21.8515 4.656H21.7075C21.6275 4.96 21.5235 5.32 21.3955 5.736C21.2675 6.136 21.1395 6.528 21.0115 6.912C20.8835 7.28 20.7795 7.584 20.6995 7.824L19.2355 11.88ZM34.8391 18L30.1351 5.376H33.6631L35.5111 10.704C35.6071 10.976 35.7191 11.336 35.8471 11.784C35.9911 12.232 36.1351 12.704 36.2791 13.2C36.4231 13.696 36.5431 14.144 36.6391 14.544H36.7591C36.8711 14.176 36.9911 13.752 37.1191 13.272C37.2471 12.776 37.3751 12.304 37.5031 11.856C37.6471 11.392 37.7671 11.008 37.8631 10.704L39.7111 5.376H43.0711L38.3431 18H34.8391ZM44.7001 3.528V0.647999H48.0361V3.528H44.7001ZM44.7001 18V5.376H48.0361V18H44.7001ZM51.0985 18V0.647999H54.4345V18H51.0985ZM59.3209 22.512C58.7289 22.512 58.2329 22.464 57.8329 22.368C57.4489 22.288 57.2009 22.232 57.0889 22.2V19.944H58.5529C58.9529 19.944 59.3129 19.848 59.6329 19.656C59.9529 19.48 60.2329 19.24 60.4729 18.936C60.7129 18.648 60.8889 18.336 61.0009 18L56.0569 5.376H59.5849L61.7449 11.208C61.8409 11.48 61.9449 11.824 62.0569 12.24C62.1849 12.64 62.3129 13.064 62.4409 13.512C62.5689 13.944 62.6729 14.328 62.7529 14.664H62.8729C62.9369 14.44 63.0089 14.176 63.0889 13.872C63.1689 13.568 63.2489 13.256 63.3289 12.936C63.4249 12.616 63.5129 12.312 63.5929 12.024C63.6889 11.72 63.7689 11.456 63.8329 11.232L65.6329 5.376H68.9929L64.6969 17.4C64.4569 18.104 64.1769 18.76 63.8569 19.368C63.5529 19.992 63.1929 20.536 62.7769 21C62.3609 21.48 61.8649 21.848 61.2889 22.104C60.7289 22.376 60.0729 22.512 59.3209 22.512ZM82.0289 18.288C81.0689 18.288 80.1569 18.192 79.2929 18C78.4289 17.808 77.6609 17.504 76.9889 17.088C76.3329 16.656 75.8129 16.12 75.4289 15.48C75.0609 14.824 74.8769 14.032 74.8769 13.104C74.8769 13.024 74.8769 12.944 74.8769 12.864C74.8769 12.768 74.8849 12.696 74.9009 12.648H78.4529C78.4369 12.696 78.4289 12.76 78.4289 12.84C78.4289 12.92 78.4289 12.992 78.4289 13.056C78.4289 13.568 78.5649 14 78.8369 14.352C79.1249 14.704 79.5409 14.968 80.0849 15.144C80.6289 15.32 81.2609 15.408 81.9809 15.408C82.4449 15.408 82.8529 15.384 83.2049 15.336C83.5729 15.272 83.8929 15.192 84.1649 15.096C84.4529 14.984 84.6849 14.856 84.8609 14.712C85.0529 14.568 85.1889 14.4 85.2689 14.208C85.3649 14.016 85.4129 13.8 85.4129 13.56C85.4129 13.128 85.2689 12.776 84.9809 12.504C84.7089 12.232 84.3249 12 83.8289 11.808C83.3489 11.616 82.8049 11.44 82.1969 11.28C81.5889 11.12 80.9649 10.96 80.3249 10.8C79.6849 10.624 79.0609 10.416 78.4529 10.176C77.8449 9.92 77.3009 9.616 76.8209 9.264C76.3409 8.912 75.9569 8.464 75.6689 7.92C75.3809 7.376 75.2369 6.72 75.2369 5.952C75.2369 5.136 75.4049 4.432 75.7409 3.84C76.0929 3.248 76.5809 2.76 77.2049 2.376C77.8289 1.992 78.5489 1.712 79.3649 1.536C80.1809 1.344 81.0689 1.248 82.0289 1.248C82.9249 1.248 83.7729 1.344 84.5729 1.536C85.3729 1.712 86.0769 2 86.6849 2.4C87.2929 2.8 87.7649 3.304 88.1009 3.912C88.4529 4.52 88.6289 5.24 88.6289 6.072V6.36H85.1489V6.168C85.1489 5.736 85.0209 5.368 84.7649 5.064C84.5089 4.76 84.1489 4.52 83.6849 4.344C83.2209 4.168 82.6769 4.08 82.0529 4.08C81.3809 4.08 80.8049 4.144 80.3249 4.272C79.8609 4.4 79.5009 4.592 79.2449 4.848C79.0049 5.088 78.8849 5.376 78.8849 5.712C78.8849 6.096 79.0209 6.416 79.2929 6.672C79.5809 6.912 79.9649 7.128 80.4449 7.32C80.9409 7.496 81.4929 7.656 82.1009 7.8C82.7089 7.944 83.3329 8.104 83.9729 8.28C84.6129 8.456 85.2369 8.664 85.8449 8.904C86.4529 9.144 86.9969 9.448 87.4769 9.816C87.9569 10.168 88.3409 10.608 88.6289 11.136C88.9169 11.664 89.0609 12.296 89.0609 13.032C89.0609 14.296 88.7569 15.312 88.1489 16.08C87.5409 16.848 86.7089 17.408 85.6529 17.76C84.5969 18.112 83.3889 18.288 82.0289 18.288ZM91.6219 3.528V0.647999H94.9579V3.528H91.6219ZM91.6219 18V5.376H94.9579V18H91.6219ZM98.0204 18V0.647999H101.356V18H98.0204ZM107.683 18L102.979 5.376H106.507L108.355 10.704C108.451 10.976 108.563 11.336 108.691 11.784C108.835 12.232 108.979 12.704 109.123 13.2C109.267 13.696 109.387 14.144 109.483 14.544H109.603C109.715 14.176 109.835 13.752 109.963 13.272C110.091 12.776 110.219 12.304 110.347 11.856C110.491 11.392 110.611 11.008 110.707 10.704L112.555 5.376H115.915L111.187 18H107.683ZM120.763 18.288C120.347 18.288 119.899 18.24 119.419 18.144C118.955 18.048 118.515 17.88 118.099 17.64C117.683 17.384 117.339 17.024 117.067 16.56C116.811 16.08 116.683 15.472 116.683 14.736C116.683 13.856 116.875 13.128 117.259 12.552C117.643 11.976 118.187 11.528 118.891 11.208C119.611 10.872 120.467 10.64 121.459 10.512C122.451 10.384 123.547 10.32 124.747 10.32V9.384C124.747 9.016 124.683 8.696 124.555 8.424C124.443 8.152 124.235 7.936 123.931 7.776C123.643 7.616 123.235 7.536 122.707 7.536C122.179 7.536 121.747 7.6 121.411 7.728C121.091 7.856 120.859 8.024 120.715 8.232C120.587 8.424 120.523 8.64 120.523 8.88V9.168H117.283C117.267 9.088 117.259 9.016 117.259 8.952C117.259 8.872 117.259 8.776 117.259 8.664C117.259 7.928 117.483 7.296 117.931 6.768C118.379 6.224 119.011 5.808 119.827 5.52C120.643 5.232 121.595 5.088 122.683 5.088C123.851 5.088 124.827 5.24 125.611 5.544C126.411 5.848 127.019 6.296 127.435 6.888C127.867 7.48 128.083 8.224 128.083 9.12V14.856C128.083 15.144 128.163 15.36 128.323 15.504C128.499 15.632 128.691 15.696 128.899 15.696H129.691V17.88C129.531 17.96 129.283 18.04 128.947 18.12C128.611 18.216 128.203 18.264 127.723 18.264C127.259 18.264 126.843 18.192 126.475 18.048C126.123 17.92 125.827 17.736 125.587 17.496C125.347 17.24 125.179 16.936 125.083 16.584H124.915C124.643 16.92 124.307 17.216 123.907 17.472C123.523 17.728 123.067 17.928 122.539 18.072C122.027 18.216 121.435 18.288 120.763 18.288ZM121.891 15.768C122.339 15.768 122.739 15.704 123.091 15.576C123.443 15.432 123.739 15.248 123.979 15.024C124.219 14.784 124.403 14.496 124.531 14.16C124.675 13.824 124.747 13.464 124.747 13.08V12.384C123.851 12.384 123.051 12.448 122.347 12.576C121.643 12.688 121.083 12.888 120.667 13.176C120.267 13.464 120.067 13.864 120.067 14.376C120.067 14.664 120.139 14.912 120.283 15.12C120.427 15.328 120.635 15.488 120.907 15.6C121.179 15.712 121.507 15.768 121.891 15.768Z" fill="#EFEFEF"/>
</svg>
