<svg width="59" height="59" viewBox="0 0 59 59" fill="none" xmlns="http://www.w3.org/2000/svg">
<g clip-path="url(#clip0_418_133)">
<path d="M29.4951 0C13.1914 0 6.56491e-06 13.1939 6.56491e-06 29.5C-0.00257917 33.3747 0.758696 37.2119 2.24029 40.7922C3.72189 44.3725 5.89475 47.6256 8.63459 50.3654C11.3744 53.1053 14.6275 55.2781 18.2078 56.7597C21.7881 58.2413 25.6253 59.0026 29.5 59C45.8061 59 59 45.8061 59 29.5C58.9975 13.1939 45.6955 0 29.4951 0ZM15.6596 35.8302C16.6233 37.1159 17.9114 37.6543 19.733 37.6543C20.5935 37.6543 21.4514 37.5461 22.2012 37.2241C22.9535 36.9045 23.8114 36.4718 24.8808 35.8302L27.8873 40.12C25.4216 42.1604 22.6314 43.1241 19.4135 43.1241C16.8371 43.1241 14.6935 42.5882 12.7637 41.5163C10.8902 40.4112 9.3942 38.766 8.47142 36.7963C7.50776 34.7559 6.96938 32.3959 6.96938 29.6057C6.96938 26.9261 7.50776 24.458 8.46896 22.42C9.38674 20.3897 10.8811 18.674 12.7661 17.4861C14.5878 16.3061 16.8396 15.7702 19.3078 15.7702C21.0261 15.7702 22.6339 15.9841 23.922 16.52C25.3672 17.0794 26.7084 17.8771 27.8898 18.88L24.8857 22.9559C24.1231 22.3928 23.2952 21.924 22.42 21.5596C21.6702 21.24 20.7041 21.1318 19.8437 21.1318C16.198 21.1318 14.3739 23.9196 14.3739 29.6032C14.2682 32.5041 14.8041 34.5396 15.662 35.8278L15.6596 35.8302ZM45.1596 42.48C44.0878 45.8061 42.4775 48.2743 40.2233 50.0959C37.9714 51.9225 34.9673 52.8861 31.2135 53.2082L30.4637 48.1686C32.9294 47.8441 34.7535 47.3082 35.9335 46.4477C36.3612 46.1282 37.2216 45.162 37.2216 45.162L28.3175 16.6282H35.7171L40.8673 37.9739L46.3396 16.6282H53.5253L45.1596 42.48Z" fill="#2F5EA5"/>
</g>
<defs>
<clipPath id="clip0_418_133">
<rect width="59" height="59" fill="white"/>
</clipPath>
</defs>
</svg>
