<svg width="45" height="59" viewBox="0 0 45 59" fill="none" xmlns="http://www.w3.org/2000/svg">
<path d="M1.61328 11.0386C1.61328 4.94214 6.55543 0 12.6519 0H31.5928C37.6892 0 42.6314 4.94214 42.6314 11.0386C42.6314 14.8989 40.6498 18.2965 37.6483 20.2694C40.6498 22.2424 42.6314 25.6399 42.6314 29.5002C42.6314 35.5967 37.6892 40.5389 31.5928 40.5389H31.3531C28.495 40.5389 25.8906 39.4527 23.9303 37.6706V47.8415C23.9303 54.0192 18.8589 59 12.7114 59C6.63014 59 1.61328 54.0729 1.61328 47.9614C1.61328 44.1012 3.59468 40.7039 6.59592 38.7309C3.59468 36.7578 1.61328 33.3604 1.61328 29.5002C1.61328 25.6399 3.59485 22.2424 6.5963 20.2694C3.59485 18.2965 1.61328 14.8989 1.61328 11.0386ZM20.3144 22.0774H12.6519C8.55237 22.0774 5.22908 25.4008 5.22908 29.5002C5.22908 33.5839 8.52674 36.8974 12.6045 36.9229C12.6202 36.9228 12.636 36.9228 12.6519 36.9228H20.3144V22.0774ZM23.9303 29.5002C23.9303 33.5997 27.2535 36.923 31.3531 36.923H31.5928C35.6923 36.923 39.0156 33.5997 39.0156 29.5002C39.0156 25.4008 35.6923 22.0774 31.5928 22.0774H31.3531C27.2535 22.0774 23.9303 25.4008 23.9303 29.5002ZM12.6519 40.5389C12.636 40.5389 12.6202 40.5388 12.6045 40.5388C8.52674 40.5642 5.22908 43.8777 5.22908 47.9614C5.22908 52.0458 8.59677 55.3842 12.7114 55.3842C16.8923 55.3842 20.3144 51.9921 20.3144 47.8415V40.5389H12.6519ZM12.6519 3.6158C8.55237 3.6158 5.22908 6.9391 5.22908 11.0386C5.22908 15.1381 8.55237 18.4614 12.6519 18.4614H20.3144V3.6158H12.6519ZM23.9303 18.4614H31.5928C35.6923 18.4614 39.0156 15.1381 39.0156 11.0386C39.0156 6.9391 35.6923 3.6158 31.5928 3.6158H23.9303V18.4614Z" fill="#2F5EA5"/>
</svg>
