<svg width="59" height="59" viewBox="0 0 59 59" fill="none" xmlns="http://www.w3.org/2000/svg">
<path d="M36.7188 6.11385V17.2177L49.1968 49.2657C49.1968 49.2657 53.006 57.0928 42.1109 59H17.2556C17.2556 59 7.10062 57.9402 9.53513 49.8995L22.6481 17.2182V6.11385H36.7188ZM41.8553 38.3372C30.9646 34.959 21.8086 36.7725 17.3334 38.1435L12.8206 49.0059C10.8958 55.1493 18.4085 56.2376 19.2046 56.3349L19.2723 56.3428H40.0317C48.7359 54.8722 46.2045 49.0366 45.9678 48.5319L45.9511 48.497L41.8553 38.3372ZM22.6472 40.2478C24.5869 40.2488 26.1603 41.1972 26.1603 42.3733C26.1603 43.5445 24.586 44.4973 22.6472 44.4973C20.7083 44.4973 19.1389 43.544 19.1389 42.3733C19.1389 41.1972 20.7083 40.2478 22.6472 40.2478ZM35.1447 40.2478C37.0797 40.2488 38.653 41.1972 38.653 42.3733C38.653 43.5445 37.079 44.4973 35.1447 44.4973C33.2002 44.4973 31.6318 43.544 31.6318 42.3733C31.6318 41.1972 33.2002 40.2478 35.1447 40.2478ZM24.082 27.4323C22.7243 27.4323 21.6238 28.7586 21.6238 30.3948C21.6238 32.0311 22.7243 33.3574 24.082 33.3574C25.4395 33.3574 26.5398 32.0311 26.5398 30.3948C26.5398 28.7586 25.4395 27.4323 24.082 27.4323ZM33.0335 24.2442C31.4236 24.2442 30.1175 25.8127 30.1175 27.7573C30.1175 29.6922 31.4236 31.2656 33.0335 31.2656C34.6388 31.2656 35.9496 29.6922 35.9496 27.7573C35.9496 25.8135 34.6398 24.2442 33.0335 24.2442ZM47.8728 17.5137C47.8728 17.5137 42.6564 21.314 37.8285 16.4818V11.2005C37.8285 11.2005 44.5257 9.72394 47.8728 17.5137ZM11.3821 17.5137C14.7274 9.72394 21.4255 11.2005 21.4255 11.2005V16.4818C16.5932 21.314 11.3821 17.5137 11.3821 17.5137ZM36.9823 0C38.2002 0 39.1845 1.07847 39.1845 2.41185C39.1845 3.74434 38.1997 4.82283 36.9823 4.82283H22.0139C20.8015 4.82283 19.8154 3.74434 19.8154 2.41185C19.8154 1.0785 20.8011 0 22.0139 0H36.9823Z" fill="#2F5EA5"/>
</svg>
