<svg width="59" height="59" viewBox="0 0 59 59" fill="none" xmlns="http://www.w3.org/2000/svg">
<g clip-path="url(#clip0_418_122)">
<path d="M54.7005 29.0575C54.6975 27.3653 54.1344 25.7216 53.0991 24.3831C52.0639 23.0445 50.6146 22.0863 48.9775 21.6579L56.323 0H19.9224L27.2876 21.7267C25.6976 22.1902 24.3006 23.1565 23.3061 24.4808C22.3115 25.8051 21.773 27.4161 21.7711 29.0723C21.7711 31.6363 23.0494 33.9078 24.9989 35.3066C24.2147 36.4122 23.322 37.4366 22.3341 38.3647C20.5168 40.0955 18.3903 41.469 16.0653 42.4136C14.0151 41.0296 13.1276 38.5885 13.929 36.4005C15.6731 35.8588 17.1657 34.7106 18.1366 33.1638C19.1075 31.617 19.4927 29.7737 19.2223 27.9675C18.952 26.1614 18.0441 24.5116 16.6628 23.3169C15.2815 22.1221 13.5182 21.4612 11.6919 21.4539C9.66309 21.4565 7.71808 22.2636 6.28347 23.6982C4.84886 25.1328 4.04175 27.0778 4.03914 29.1067C4.03914 31.1913 4.89219 33.1039 6.25902 34.4707C6.14102 34.7092 6.02056 34.9501 5.9001 35.2058C4.75698 37.5633 3.45898 40.2282 2.96239 43.2175C1.97169 49.1962 3.59419 53.9948 7.50785 56.7113C9.62603 58.2052 12.1557 59.0049 14.7476 59C19.239 59 23.7992 56.7457 28.207 54.5578C31.3512 53.0041 34.5962 51.3816 37.7896 50.595C38.9696 50.3049 40.1988 50.1352 41.4968 49.946C44.1272 49.5698 46.8436 49.179 49.2848 47.758C50.6788 46.9592 51.8813 45.8651 52.8079 44.5525C53.7345 43.2398 54.3629 41.7404 54.6488 40.1593C55.0766 37.7158 54.6488 35.2574 53.5574 33.1039C54.2899 31.9239 54.7005 30.5448 54.7005 29.0575ZM51.3694 29.0575C51.3694 31.4298 49.4396 33.3596 47.0674 33.3596C46.174 33.3571 45.3035 33.077 44.5763 32.5581C43.8491 32.0392 43.3011 31.3072 43.0082 30.4632C42.7152 29.6192 42.6918 28.7051 42.9412 27.8473C43.1906 26.9894 43.7004 26.2303 44.4001 25.6748L44.4173 25.6576C44.5549 25.5544 44.7073 25.4511 44.8598 25.3503C44.8598 25.3503 44.8794 25.3503 44.8794 25.3331C44.9483 25.2987 45.0146 25.2471 45.0835 25.2102C45.1007 25.2102 45.1179 25.1955 45.1351 25.1955C45.2039 25.161 45.29 25.1266 45.3736 25.0922C45.4596 25.0578 45.5456 25.0258 45.6145 24.9914C45.6317 24.9914 45.6464 24.9742 45.6636 24.9742C45.7325 24.957 45.8013 24.9226 45.8701 24.9054C45.8874 24.9054 45.9193 24.8882 45.939 24.8882C46.0226 24.871 46.0914 24.8538 46.1774 24.839H46.1946L46.4503 24.7849C46.4675 24.7849 46.4995 24.7849 46.5191 24.7677C46.588 24.7677 46.6544 24.7505 46.7232 24.7505H46.8092C46.8953 24.7505 46.9813 24.7333 47.0821 24.7333H47.3034C47.3722 24.7333 47.4263 24.7333 47.4926 24.7505H47.5271C47.6623 24.7677 47.7999 24.7849 47.9376 24.8193C48.9074 25.0271 49.7769 25.5607 50.4012 26.3314C51.0256 27.102 51.3673 28.0657 51.3694 29.0575ZM24.6891 3.41708H51.5587L45.3908 21.6087C45.1351 21.6579 44.8794 21.744 44.6238 21.83L38.1338 8.59187L31.6241 21.744C31.3684 21.6604 31.0931 21.6087 30.8202 21.5571L24.6891 3.41708ZM36.9021 27.5702C36.5879 25.9934 35.7803 24.5574 34.5962 23.4697L38.1313 16.3307L41.7008 23.6246C40.6437 24.6817 39.8743 26.0337 39.567 27.5702H36.9021ZM28.3447 24.871C28.4283 24.8537 28.4971 24.8365 28.5831 24.8218H28.6323C28.7036 24.8021 28.77 24.8021 28.8388 24.7849H28.9076C28.9765 24.7849 29.0281 24.7677 29.0945 24.7677H29.7607C29.8295 24.7677 29.8811 24.7849 29.9328 24.7849C29.9672 24.7849 29.9819 24.7849 30.0188 24.8021C30.0852 24.8193 30.1368 24.8193 30.2056 24.8365C30.2229 24.8365 30.2401 24.8365 30.2745 24.8537L30.5129 24.9029H30.5301C30.599 24.9226 30.6678 24.9398 30.7342 24.9742C30.7514 24.9742 30.7686 24.9914 30.803 24.9914C30.8546 25.0086 30.9235 25.0258 30.9751 25.0578C30.9923 25.0578 31.0095 25.075 31.0243 25.075C31.0931 25.1094 31.1619 25.1266 31.2308 25.161H31.248C31.3269 25.1909 31.4014 25.2314 31.4692 25.2815H31.4864C31.5553 25.3159 31.6241 25.3651 31.6929 25.3995C31.7101 25.3995 31.7101 25.4167 31.7249 25.4167C31.7937 25.4511 31.8478 25.5027 31.9142 25.5372L31.9314 25.5544C32.1354 25.7068 32.3247 25.8789 32.5116 26.0485L32.5288 26.0657C33.29 26.8676 33.7127 27.9322 33.7088 29.0378C33.671 30.1543 33.201 31.2124 32.3979 31.9889C31.5947 32.7653 30.5213 33.1993 29.4042 33.1993C28.2871 33.1993 27.2137 32.7653 26.4106 31.9889C25.6075 31.2124 25.1374 30.1543 25.0997 29.0378C25.097 28.0805 25.4152 27.1499 26.0034 26.3946C26.5916 25.6393 27.4159 25.1029 28.3447 24.871ZM11.5346 24.7505C13.9094 24.7505 15.8391 26.6828 15.8391 29.055C15.8391 31.4273 13.9094 33.3596 11.5371 33.3596C9.16477 33.3596 7.23006 31.4298 7.23006 29.0575C7.23006 26.6852 9.16231 24.7505 11.5346 24.7505ZM51.2686 39.562C51.0743 40.6548 50.6414 41.6914 50.0006 42.5977C49.3598 43.5041 48.527 44.258 47.5615 44.8056C45.6981 45.8823 43.4094 46.224 41.0002 46.5657C39.6456 46.7393 38.3001 46.978 36.9685 47.2811C33.4162 48.1538 30.0016 49.8624 26.6878 51.5021C22.4496 53.6015 18.4524 55.5829 14.7476 55.5829C12.8479 55.5947 10.9936 55.0024 9.45239 53.8916C5.6936 51.2956 5.88044 46.4281 6.32539 43.7632C6.73594 41.268 7.87906 38.9302 8.97302 36.6906C9.04185 36.5554 9.09348 36.435 9.16231 36.2973C9.53598 36.435 9.92931 36.5382 10.3399 36.607C9.69085 40.2282 11.5346 43.9673 15.1238 45.8135L15.7728 46.1552L16.4709 45.8995C19.4603 44.84 22.2284 43.1143 24.6719 40.8083C26.0213 39.5501 27.214 38.1337 28.2242 36.5898C28.6176 36.6562 29.0109 36.6734 29.4042 36.6734C31.0953 36.6695 32.7375 36.1063 34.0751 35.0716C35.4126 34.0368 36.3703 32.5887 36.7989 30.9529H39.6678C40.0935 32.5912 41.0512 34.0418 42.3904 35.0772C43.7296 36.1125 45.3746 36.6739 47.0674 36.6734C48.4833 36.6734 49.7961 36.2801 50.9269 35.6163C51.3694 36.8947 51.5071 38.2295 51.2686 39.562Z" fill="#2F5EA5"/>
</g>
<defs>
<clipPath id="clip0_418_122">
<rect width="59" height="59" fill="white"/>
</clipPath>
</defs>
</svg>
