<svg width="70" height="70" viewBox="0 0 70 70" fill="none" xmlns="http://www.w3.org/2000/svg">
<path d="M12.8242 24.2266C13.5625 23.9805 14.3008 23.748 15.0391 23.5293C14.916 23.0234 14.8066 22.5176 14.6973 22.0117C13.0156 13.8633 14.123 7.31445 17.8555 5.1543C21.4512 3.08984 27.3164 5.23633 33.25 10.4043C33.8379 10.9102 34.4121 11.4434 34.959 11.9766C35.3281 11.6211 35.7109 11.2656 36.0938 10.9238C42.3145 5.40039 48.5488 3.07617 52.2812 5.25C55.8633 7.32812 56.9297 13.4941 55.4258 21.2051C55.2754 21.9707 55.1113 22.7227 54.9199 23.4883C55.7949 23.7344 56.6562 24.0078 57.4629 24.2949C64.7637 26.8242 70 30.8164 70 34.9453C70 39.2109 64.4219 43.4902 56.834 46.0879C56.2188 46.293 55.6035 46.498 54.9746 46.6758C55.1797 47.4961 55.3574 48.3027 55.5215 49.1367C56.957 56.7246 55.8359 62.7402 52.2539 64.8047C48.5625 66.9375 42.3555 64.75 36.3125 59.459C35.834 59.0352 35.3555 58.5977 34.877 58.1328C34.2754 58.7207 33.6465 59.2812 33.0176 59.8281C27.166 64.8594 21.3828 66.8965 17.8145 64.832C14.123 62.6992 12.9199 56.2324 14.4785 48.3574C14.6016 47.7559 14.7383 47.1406 14.8887 46.5117C14.4512 46.3887 14.0273 46.2519 13.6035 46.1152C5.71484 43.5039 0 39.2793 0 34.9453C0 30.8027 5.38672 26.7832 12.8242 24.2266ZM31.3223 12.6191C26.2363 8.18945 21.4922 6.45312 19.332 7.69726C17.0215 9.02344 16.1328 14.3828 17.582 21.4238C17.6777 21.8887 17.7734 22.3398 17.8965 22.791C20.9316 22.1074 24.0078 21.6152 27.0977 21.3418C28.875 18.7988 30.8164 16.3652 32.9219 14.082C32.3887 13.5762 31.8691 13.0977 31.3223 12.6191ZM47.1406 42.041C46.4434 43.2305 45.7324 44.4199 44.9805 45.582C47.1133 45.3496 49.2324 45.0078 51.3242 44.5566C50.7227 42.5879 49.9707 40.5508 49.0957 38.4727C48.4668 39.6758 47.8242 40.8652 47.1406 42.041ZM51.2832 25.5937C49.3145 25.1562 47.2227 24.8008 45.0488 24.5273C45.7734 25.6621 46.4844 26.8242 47.1543 28C47.8242 29.1621 48.4805 30.3516 49.0957 31.5547C49.957 29.5176 50.6816 27.5215 51.2832 25.5937ZM47.5371 35.0137C46.6348 33.127 45.6504 31.2812 44.6113 29.4629C43.5723 27.6445 42.4512 25.8809 41.2754 24.1445C39.2246 23.9941 37.1328 23.9121 35 23.9121C32.8672 23.9121 30.7617 23.9941 28.7246 24.1445C27.5625 25.8672 26.4551 27.6309 25.4023 29.4355C24.3496 31.2402 23.3652 33.0859 22.4355 34.959C23.3516 36.8457 24.3359 38.7051 25.3887 40.5371C26.4277 42.3555 27.5352 44.1191 28.6973 45.8691C30.7344 46.0195 32.8535 46.0879 35 46.0879C37.1465 46.0879 39.2246 46.0195 41.2344 45.8965C42.4238 44.1602 43.5449 42.3828 44.5977 40.5645C45.6504 38.7461 46.6211 36.9004 47.5371 35.0137ZM22.8457 42.0137C22.1484 40.8105 21.4922 39.5938 20.8496 38.3633C19.9746 40.3457 19.209 42.3555 18.5391 44.4199C20.6582 44.8984 22.8047 45.2676 24.9648 45.5137C24.2266 44.3652 23.5293 43.1894 22.8457 42.0137ZM20.877 31.5547C21.5195 30.3516 22.1758 29.1484 22.8594 27.9727C23.5293 26.8105 24.2266 25.6621 24.9512 24.5273C22.75 24.8008 20.6445 25.1699 18.6758 25.6211C19.3047 27.6445 20.043 29.6133 20.877 31.5547ZM34.9727 16.1738C33.5371 17.7324 32.1836 19.373 30.9258 21.0684C33.6328 20.9453 36.3535 20.9453 39.0605 21.0684C37.7207 19.3047 36.3398 17.6641 34.9727 16.1738ZM50.832 7.79297C48.5352 6.45312 43.4355 8.36719 38.0625 13.125C37.7207 13.4258 37.3789 13.7539 37.0234 14.082C39.1426 16.3652 41.0977 18.7988 42.8887 21.3418C45.9785 21.6152 49.041 22.0937 52.0762 22.7637C52.2539 22.0664 52.4043 21.3555 52.5547 20.6445C53.8398 14.0273 52.9922 9.03711 50.832 7.79297ZM54.1816 43.832C54.7559 43.668 55.3164 43.4902 55.877 43.2988C58.7891 42.3828 62.0977 40.9336 64.4902 39.0332C65.8711 38.0762 66.8008 36.5996 67.0605 34.9453C67.0605 32.4434 62.7402 29.2441 56.5059 27.0703C55.7266 26.7969 54.9336 26.5508 54.1406 26.3184C53.2109 29.2852 52.0898 32.1973 50.791 35.0137C52.1035 37.8711 53.2383 40.8242 54.1816 43.832ZM38.2402 57.2305C40.4961 59.2949 43.1074 60.9355 45.9512 62.0566C47.4688 62.7812 49.2188 62.8496 50.7773 62.2344C52.9512 60.9766 53.8535 56.1504 52.623 49.6562C52.4727 48.8906 52.3086 48.125 52.1172 47.373C49.0547 48.0293 45.9648 48.4805 42.834 48.7129C41.0293 51.2695 39.0469 53.7168 36.9277 56.0137C37.3652 56.4375 37.8027 56.8477 38.2402 57.2305ZM34.8906 53.9082C36.2852 52.4043 37.6797 50.7363 39.0332 48.9453C37.7207 49 36.3672 49.0273 35 49.0273C33.5918 49.0273 32.2109 49 30.8438 48.9316C32.1016 50.668 33.4551 52.3223 34.8906 53.9082ZM17.0215 58.0098C17.1445 59.6777 17.9648 61.2363 19.2773 62.2891C21.4512 63.5469 26.0859 61.9062 31.0898 57.6133C31.6641 57.1211 32.2383 56.5879 32.8262 56.041C30.7344 53.7305 28.8066 51.2832 27.0566 48.7129C23.9258 48.4531 20.8086 47.9746 17.7324 47.2773C17.5957 47.8379 17.4727 48.3984 17.3633 48.9453C16.6934 51.8984 16.584 54.9746 17.0215 58.0098ZM14.5332 43.3125C14.916 43.4355 15.2988 43.5586 15.6953 43.668C16.6523 40.6875 17.8281 37.7754 19.1816 34.9453C17.8691 32.1562 16.7617 29.2852 15.832 26.3457C15.1211 26.5508 14.4375 26.7695 13.7812 26.9883C7.41016 29.1758 2.93945 32.4297 2.93945 34.918C2.93945 37.5977 7.71094 41.0566 14.5332 43.3125ZM35 41.2617C31.541 41.2617 28.7383 38.459 28.7383 35C28.7383 31.541 31.541 28.7383 35 28.7383C38.459 28.7383 41.2617 31.541 41.2617 35C41.2617 38.459 38.459 41.2617 35 41.2617Z" fill="#2F5EA5"/>
</svg>
