<svg width="59" height="59" viewBox="0 0 59 59" fill="none" xmlns="http://www.w3.org/2000/svg">
<g clip-path="url(#clip0_418_148)">
<path d="M58.9746 37.8049C58.8052 36.4313 58.1092 35.2398 56.9004 34.2591C56.8853 34.2408 56.8688 34.2239 56.8508 34.2084L56.7897 34.1646L56.7702 34.1508L56.1283 33.6899L56.1064 33.6737L56.0246 33.6161C55.9946 33.5986 55.9624 33.585 55.9289 33.5758C53.8985 32.367 50.5371 31.52 45.3942 33.3349C44.167 31.2699 44.0275 29.6152 44.8492 27.08C44.9955 26.6387 44.8595 26.3471 44.4216 26.1581C43.5412 25.7836 42.3359 25.9749 41.4809 26.2008C41.0821 26.3045 40.8425 26.5303 40.7664 26.8726C40.2248 29.4078 38.6507 31.724 37.1285 33.9595L37.0386 34.0909C36.1006 32.1019 36.2953 30.5612 36.9487 28.6311C37.0789 28.2462 36.9763 27.9904 36.6157 27.7991C35.6085 27.2794 34.0978 27.6366 33.4963 27.8141C32.7334 28.0365 31.9153 30.098 31.0014 32.5663C30.771 33.1874 30.5728 33.7187 30.4541 33.9664C30.1718 34.5426 29.9021 35.1994 29.6163 35.8966C28.971 37.4742 28.2439 39.2499 27.2045 40.3654C26.8265 39.5299 27.4211 38.2128 27.9984 36.9349C28.6818 35.4241 29.3271 33.9964 28.5838 33.0849C28.4663 32.9408 28.3205 32.8223 28.1554 32.7366C27.9903 32.651 27.8094 32.6001 27.6239 32.5871C27.3819 32.5686 27.139 32.6081 26.9152 32.7023C26.9924 32.0512 26.9959 31.5373 26.8058 30.9162C26.5338 30.03 25.8274 29.5334 24.8548 29.5599C22.64 29.6244 20.7663 31.2746 19.5829 32.6481C18.7947 33.57 17.0477 34.2729 15.5139 34.8895C14.9078 35.1464 14.3316 35.3769 13.8511 35.6074C13.0848 34.9597 12.1111 34.3064 11.0855 33.6161C8.20463 31.6825 4.94004 29.4896 4.82711 26.5165C4.66578 22.1249 9.66695 19.0102 14.032 16.7873C17.3404 15.1049 20.2167 13.9894 22.8256 13.3798C26.49 12.5236 29.5852 12.6965 32.0236 13.8914C33.358 14.5448 33.9826 15.9657 33.5862 17.4268C32.549 21.2238 28.252 23.8258 24.5771 24.9966C22.3635 25.7018 20.4794 25.9968 18.8154 25.9C16.7297 25.779 15.0265 24.7327 14.2982 24.2867C14.1815 24.2071 14.0582 24.1377 13.9295 24.0793L13.8961 24.0712C13.8301 24.0548 13.7609 24.0569 13.6961 24.0772C13.6312 24.0976 13.5732 24.1354 13.5285 24.1865C13.3787 24.3651 13.4317 24.6474 13.4858 24.7903C14.1945 26.6421 15.658 27.8118 17.8348 28.2669C18.5472 28.4096 19.2723 28.4787 19.9989 28.4732C25.0934 28.4732 31.5938 25.5359 33.9814 23.1171C35.6097 21.4693 36.7954 19.7753 37.2863 16.8541C37.7991 13.7946 35.7249 11.6686 33.6115 10.6891C28.4755 8.31871 22.6423 9.25557 18.6529 10.4586C13.9859 11.8656 9.15762 14.4238 5.40789 17.4798C0.784688 21.2445 -0.886211 24.7396 0.438984 27.8797C1.7999 31.0982 5.11865 33.1114 8.32793 35.0588C9.36504 35.6869 10.3514 36.2849 11.2399 36.9026C10.9726 37.0328 10.6995 37.1653 10.4217 37.2979C7.72756 38.6035 4.67154 40.0727 2.97645 42.5007C1.74574 44.2695 1.51527 46.0303 2.29195 47.7346C2.7068 48.6415 3.4443 49.2569 4.46873 49.5634C5.00163 49.7144 5.55352 49.7877 6.10736 49.7812C8.10207 49.7812 10.2973 48.9745 11.4923 48.229C13.6034 46.9038 14.9712 45.1246 15.5589 42.9409C16.0821 40.998 15.9564 39.0678 15.1959 37.3451L17.7829 36.0406C16.5349 40.1891 17.4914 42.6666 18.5423 44.0333C18.9295 44.5369 19.6278 44.8399 20.4079 44.8538C21.1881 44.8676 21.906 44.5737 22.3116 44.0736C23.0791 43.1229 23.646 42.0109 24.168 40.8989C24.1404 41.6249 24.175 42.3601 24.4227 42.9835C24.6451 43.5447 25.0116 43.9169 25.484 44.0598C25.9864 44.2131 26.5753 44.084 27.1422 43.6968C29.697 41.9487 31.4439 37.753 32.8475 34.3801C33.0469 33.9007 33.2381 33.4398 33.4237 33.0088C33.7709 34.2515 34.254 35.4522 34.8641 36.5892C35.0001 36.8358 34.9886 36.9441 34.8042 37.1469C34.5265 37.4511 34.1393 37.8187 33.729 38.2082C32.4868 39.3871 30.9404 40.8586 30.733 42.1527C30.6523 42.6712 31.0095 43.1437 31.5638 43.2509C33.2312 43.5827 35.2398 43.0976 36.9383 41.9545C38.4825 40.9174 39.0632 39.4712 38.6668 37.6689C38.2831 35.9335 39.1589 33.7786 41.27 31.2596C41.6157 32.7035 42.0766 33.8708 42.7127 34.8929L42.6954 34.9067C41.1582 36.2492 39.0517 38.0872 39.379 40.317C39.4064 40.529 39.4778 40.7331 39.5885 40.916C39.6992 41.0989 39.8469 41.2568 40.022 41.3794C40.2092 41.5058 40.4204 41.5921 40.6425 41.633C40.8646 41.6738 41.0927 41.6683 41.3126 41.6168C43.3258 41.1939 44.8411 40.3423 45.9427 39.016C47.0444 37.6896 46.6422 36.2193 46.2712 35.0784C49.152 34.2971 51.7171 34.3167 54.1186 35.1361C55.4669 35.597 56.4337 36.3541 56.9914 37.3993C57.6932 38.7141 57.3141 39.9275 55.9209 40.816C55.4934 41.0891 55.2871 41.2561 55.2744 41.467C55.2716 41.516 55.2806 41.5649 55.3006 41.6096C55.3207 41.6543 55.3512 41.6936 55.3897 41.724C55.551 41.8565 56.0488 42.087 57.1746 41.3783C58.2117 40.7272 58.8202 39.8411 58.9757 38.7279C59.007 38.421 59.0067 38.1117 58.9746 37.8049ZM12.912 40.6927L12.9004 40.8402C12.7207 42.5272 11.8633 43.9976 10.348 45.2191C9.39615 45.9865 8.3625 46.4578 7.43832 46.5477C6.79301 46.6099 6.324 46.5224 6.04514 46.2861C5.83656 46.1098 5.72478 45.8459 5.69943 45.4795C5.51045 42.5433 10.1152 39.6256 12.7068 38.6657C12.8918 39.3244 12.9612 40.0102 12.912 40.6927ZM24.7062 32.4119C24.2798 34.8422 23.0364 39.4297 21.0821 41.2101C20.9887 41.2953 20.9104 41.3253 20.8746 41.3172C20.8389 41.3092 20.8113 41.2665 20.7825 41.202C20.1302 39.6901 20.3711 37.1365 21.3586 35.1303C22.118 33.5838 23.2024 32.5594 24.4146 32.2494C24.465 32.2356 24.5169 32.2282 24.5691 32.2275C24.6099 32.2247 24.6505 32.2356 24.6843 32.2587C24.6986 32.2812 24.7079 32.3065 24.7117 32.3329C24.7154 32.3594 24.7136 32.3863 24.7062 32.4119ZM34.3271 41.2711C33.9595 41.6549 33.4559 41.603 33.5746 41.4624L35.446 39.4758C35.2951 40.1591 34.8491 40.7249 34.3271 41.2711ZM42.0905 39.553C41.9125 39.6407 41.7199 39.695 41.5223 39.7132C41.4693 38.668 42.4822 37.4914 43.4813 36.7067C43.7498 37.7968 43.2002 38.9492 42.0905 39.553Z" fill="#2F5EA5"/>
</g>
<defs>
<clipPath id="clip0_418_148">
<rect width="59" height="59" fill="white"/>
</clipPath>
</defs>
</svg>
