<svg width="59" height="59" viewBox="0 0 59 59" fill="none" xmlns="http://www.w3.org/2000/svg">
<path d="M39.8594 16.6233L39.675 17.5845C39.3899 19.4061 39.4931 19.9273 40.2749 20.6033L41.0296 21.2277L40.2478 24.7137C39.7807 26.7934 39.208 28.5364 38.8441 29.1092C38.5319 29.6033 38.1681 30.331 38.0894 30.7218C37.9591 31.1889 37.5166 31.6585 36.8406 32.0739C36.2432 32.4132 35.0706 33.3228 34.2397 34.0529C33.5759 34.6502 33.1187 35.0165 32.8704 35.1739L32.0591 35.8155C31.7985 36.2334 31.651 36.5702 31.5945 36.8259C31.538 37.0889 31.5699 37.2635 31.6535 37.3913C31.7346 37.5142 31.8747 37.6003 32.0665 37.6543C32.2935 37.7075 32.5271 37.7266 32.7598 37.7109C33.286 37.6749 33.8069 37.5826 34.3134 37.4355C34.4855 37.3888 34.6207 37.3446 34.7387 37.3052C34.9206 37.0815 35.341 36.6587 36.0859 35.9237C38.0624 33.9742 38.8171 32.9073 38.0378 33.1949C37.7502 33.2982 37.8805 33.0376 38.3746 32.5164C39.4169 31.5011 40.0143 29.9671 41.2631 25.1562C42.2514 21.358 42.2514 21.304 42.979 21.304C43.3207 21.304 44.2869 21.363 44.2869 21.363V16.6233H42.0695H39.8594ZM49.297 24.4039C49.1396 24.4039 48.879 24.6399 48.7242 24.9005C48.439 25.3676 48.7758 25.6527 53.068 28.3323C55.6173 29.9475 57.6725 31.3241 57.6209 31.4298C57.5692 31.506 55.487 32.8606 52.9918 34.4216C48.4636 37.229 48.439 37.2561 48.8545 37.8289C49.3756 38.5049 48.8545 38.7385 54.7323 35.0706L59 32.3394V30.2842L54.2382 27.3441C51.6643 25.7314 49.4272 24.431 49.297 24.4039ZM9.75467 24.6915C9.62437 24.6915 7.38729 26.019 4.81342 27.6047L0 30.5448V32.6L4.78638 35.5918C7.44137 37.229 9.67846 38.5836 9.78171 38.5836C9.88496 38.5836 10.0939 38.3476 10.3029 38.0624C10.6151 37.5683 10.352 37.3593 5.95654 34.5765C1.77 31.9485 1.3275 31.5847 1.74542 31.2995C2.006 31.1176 3.9825 29.8934 6.11633 28.5683C10.9814 25.5765 10.7208 25.783 10.3299 25.1586C10.175 24.9005 9.912 24.667 9.75712 24.6915H9.75467ZM31.1028 24.7481C30.385 24.7432 28.8412 25.8371 24.2195 29.6107C24.0204 30.0851 24.0032 30.4121 24.0941 30.6235C24.1531 30.7685 24.2613 30.8693 24.4112 30.9431C24.5588 31.0168 24.7505 31.0611 24.9619 31.0783C25.3823 31.1152 25.8789 31.0488 26.2796 30.9701L26.55 30.9087C26.6426 30.7845 26.7641 30.6849 26.904 30.6186C27.1892 30.4612 28.3864 29.3697 29.5836 28.1996C31.6904 26.0657 32.1845 25.1021 31.3265 24.7899C31.2562 24.7619 31.1786 24.7477 31.1028 24.7481ZM36.5013 26.2305C35.8695 26.2477 34.7313 26.9802 32.7819 28.5364C31.8035 29.3304 31.184 29.7582 30.8521 29.8467L29.5639 30.8644C29.0796 31.7494 29.0083 32.2976 29.1362 32.6C29.1682 32.6746 29.2146 32.7421 29.2728 32.7986C29.3311 32.8552 29.3999 32.8996 29.4754 32.9294C29.6632 33.0036 29.8635 33.0411 30.0654 33.04C30.5479 33.0349 31.0275 32.9646 31.4912 32.8311C31.7329 32.7662 31.9716 32.6908 32.2066 32.6049L32.2779 32.5754L32.4082 32.5066C32.654 32.1895 33.2195 31.5921 33.9275 30.9037C36.1645 28.7453 37.3077 27.2113 37.0741 26.6385C36.9684 26.3608 36.7865 26.2206 36.5013 26.2305ZM30.5423 28.8855C30.3604 28.9051 29.9523 29.2198 29.2173 29.8639C28.1553 30.803 26.9974 31.3438 26.5967 31.1029C26.5036 31.1239 26.4102 31.1436 26.3165 31.1619C25.9084 31.243 25.3995 31.3094 24.9447 31.2725C24.7304 31.2595 24.5204 31.207 24.3252 31.1176C24.1411 31.0335 23.9942 30.8848 23.9122 30.6997C23.8212 30.4785 23.8213 30.2031 23.9245 29.8516L22.3266 31.1643L18.7104 34.1561V39.0064L30.5595 29.6721C30.5572 29.5699 30.5705 29.468 30.5989 29.3697C30.6898 29.0403 30.6849 28.8732 30.5423 28.8879V28.8855ZM35.6409 30.4563C35.4615 30.4563 35.1615 30.7095 34.6822 31.2184C34.0307 31.9141 33.0056 32.5877 32.4623 32.7254L32.3787 32.7696C32.2895 32.8065 32.1993 32.8409 32.1083 32.8729C31.9608 32.922 31.769 32.981 31.5478 33.04C31.1053 33.1605 30.5546 33.2711 30.063 33.2588C29.8312 33.2585 29.6016 33.2135 29.3869 33.1261C29.1846 33.0427 29.0224 32.8841 28.9346 32.6836C28.792 32.3419 28.8485 31.8625 29.1607 31.1815L18.7079 39.4145V42.3768H23.3001L33.04 34.7265C33.2932 34.4462 33.6742 34.0627 34.188 33.5833C35.5647 32.3075 35.8769 31.8674 35.8769 31.216C35.8769 30.7095 35.8204 30.4539 35.6409 30.4539V30.4563ZM37.9591 35.2501L37.1257 36.081C36.6587 36.5235 35.8253 37.0692 35.255 37.3028L35.1419 37.352L35.1345 37.3643L35.1099 37.3888C35.0878 37.406 35.078 37.4085 35.0607 37.4159C34.8331 37.502 34.6018 37.5783 34.3675 37.6445C33.8466 37.7961 33.3109 37.8909 32.7696 37.9272C32.5137 37.9436 32.2567 37.9212 32.0075 37.8608C31.7912 37.8132 31.6003 37.6871 31.4716 37.5068C31.3536 37.3249 31.3192 37.0815 31.3855 36.7816C31.4383 36.5681 31.5168 36.3617 31.6191 36.167L23.7598 42.3768H34.2126L35.4615 40.946C37.1774 38.945 37.9591 37.5142 37.9591 36.29V35.2501Z" fill="#2F5EA5"/>
</svg>
