<svg width="59" height="59" viewBox="0 0 59 59" fill="none" xmlns="http://www.w3.org/2000/svg">
<g clip-path="url(#clip0_418_138)">
<path d="M29.5024 11.8C21.6358 11.8 16.7191 15.7334 14.7524 23.6C17.7024 19.6667 21.1441 18.1917 25.0774 19.175C27.3219 19.7355 28.9247 21.363 30.7021 23.1674C33.5956 26.1026 36.9414 29.5 44.2524 29.5C52.1191 29.5 57.0358 25.5667 59.0024 17.7C56.0524 21.6334 52.6108 23.1084 48.6774 22.125C46.433 21.5645 44.8302 19.9371 43.0528 18.1327C40.1618 15.1975 36.816 11.8 29.5024 11.8ZM14.7524 29.5C6.88577 29.5 1.96911 33.4334 0.00244141 41.3C2.95244 37.3667 6.39411 35.8917 10.3274 36.875C12.5719 37.4355 14.1747 39.063 15.9521 40.8674C18.8456 43.8026 22.1914 47.2001 29.5024 47.2001C37.3691 47.2001 42.2858 43.2667 44.2524 35.4C41.3024 39.3334 37.8608 40.8084 33.9274 39.825C31.683 39.2645 30.0801 37.6371 28.3028 35.8327C25.4118 32.8975 22.066 29.5 14.7524 29.5Z" fill="#2F5EA5"/>
</g>
<defs>
<clipPath id="clip0_418_138">
<rect width="59" height="59" fill="white"/>
</clipPath>
</defs>
</svg>
