<svg width="59" height="59" viewBox="0 0 59 59" fill="none" xmlns="http://www.w3.org/2000/svg">
<g clip-path="url(#clip0_418_105)">
<path d="M2.76562 0C1.23408 0 0 1.23408 0 2.76562V56.2344C0 57.7659 1.23408 59 2.76562 59H56.2344C57.7659 59 59 57.7659 59 56.2344V2.76562C59 1.23408 57.7659 0 56.2344 0H2.76562ZM45.4497 23.9688C46.9542 23.9688 48.2866 24.0597 49.4494 24.2416C50.5461 24.4059 51.6223 24.6861 52.66 25.0775V31.12C52.1619 30.7756 51.6327 30.4785 51.0792 30.2326C50.5085 29.9758 49.9193 29.7621 49.3166 29.5934C48.175 29.2753 46.9962 29.11 45.811 29.1017C45.0735 29.1017 44.4024 29.1706 43.7977 29.3132C43.2587 29.4284 42.7416 29.6293 42.2661 29.9081C41.8482 30.1637 41.5286 30.471 41.3 30.8275C41.07 31.1868 40.9504 31.6056 40.9558 32.0321C40.9558 32.5139 41.0861 32.949 41.3393 33.3325C41.595 33.716 41.9588 34.0799 42.4284 34.424C42.8979 34.7682 43.4683 35.1025 44.1394 35.432C44.8105 35.7638 45.5701 36.1055 46.4158 36.4546C47.5712 36.9389 48.6086 37.4552 49.528 37.9985C50.4475 38.5442 51.2366 39.1612 51.8954 39.8496C52.5542 40.5355 53.0558 41.3197 53.4048 42.2022C53.7539 43.0847 53.9309 44.1099 53.9309 45.2825C53.9309 46.8976 53.6236 48.2571 53.014 49.3535C52.4183 50.4348 51.5634 51.3514 50.5261 52.0208C49.408 52.7298 48.1688 53.2265 46.8706 53.486C45.4792 53.781 44.0115 53.9285 42.4702 53.9285C40.9531 53.9351 39.4388 53.8001 37.9468 53.5253C36.656 53.302 35.4041 52.8939 34.2298 52.3133V45.8479C36.4516 47.7387 39.2701 48.7835 42.1875 48.7979C43.0061 48.7979 43.7215 48.7242 44.3311 48.5767C44.9433 48.4292 45.4521 48.2227 45.8627 47.9621C46.2707 47.6966 46.5756 47.3868 46.7796 47.0279C47.0051 46.61 47.1077 46.1368 47.0755 45.6631C47.0434 45.1893 46.8777 44.7343 46.5977 44.3508C46.2325 43.8675 45.7857 43.4515 45.2776 43.1216C44.6474 42.7039 43.9839 42.3388 43.2937 42.0301C42.4757 41.6565 41.6503 41.2992 40.8182 40.9583C38.5614 40.0167 36.8799 38.8638 35.7712 37.5043C34.665 36.1449 34.1094 34.5002 34.1094 32.5754C34.1094 31.066 34.4118 29.7704 35.0165 28.6863C35.6213 27.6022 36.4423 26.7098 37.4847 26.0092C38.5871 25.2819 39.8111 24.7582 41.0984 24.4629C42.5242 24.1267 43.9848 23.9608 45.4497 23.9688ZM8.29688 24.4309H31.8059V29.7557H23.3689V53.4688H16.6896V29.7557H8.29688V24.4309Z" fill="#2F5EA5"/>
</g>
<defs>
<clipPath id="clip0_418_105">
<rect width="59" height="59" fill="white"/>
</clipPath>
</defs>
</svg>
