<svg width="59" height="59" viewBox="0 0 59 59" fill="none" xmlns="http://www.w3.org/2000/svg">
<path d="M33.7781 2.5885C33.647 2.58819 33.5168 2.60904 33.3924 2.65026C33.1424 2.73306 32.9262 2.89493 32.7764 3.11144L18.6714 23.5056C18.5586 23.6688 18.4878 23.8574 18.4655 24.0545C18.4431 24.2516 18.4698 24.4511 18.5433 24.6354C18.617 24.8196 18.7351 24.9828 18.8871 25.1103C19.0394 25.2383 19.2208 25.3268 19.4154 25.368L28.528 27.3004L27.9639 38.5598C27.9508 38.8219 28.0239 39.0811 28.1721 39.2977C28.3205 39.5147 28.5357 39.6774 28.7849 39.7612C29.0346 39.8447 29.3055 39.8458 29.5556 39.7628C29.8055 39.6799 30.0217 39.518 30.1716 39.3016L44.2759 18.9074C44.3891 18.7443 44.4601 18.5557 44.4825 18.3585C44.5046 18.1615 44.4786 17.9618 44.4048 17.7776C44.3312 17.5933 44.213 17.4302 44.061 17.3027C43.9087 17.1748 43.7272 17.0863 43.5327 17.0451L34.42 15.1126L34.9841 3.85319C34.9973 3.59108 34.9242 3.33186 34.776 3.11528C34.6276 2.89819 34.4124 2.73546 34.1631 2.65181C34.039 2.61012 33.909 2.58873 33.7781 2.5885ZM2.84422 24.0621C2.09081 24.065 1.369 24.3664 0.836274 24.8991C0.303614 25.4316 0.00302642 26.1531 2.27978e-05 26.9063C-0.00298548 27.6598 0.291832 28.3839 0.82027 28.9211L27.4745 55.5746C27.7394 55.8402 28.0542 56.0508 28.4008 56.1943C28.7473 56.3381 29.1188 56.4119 29.4939 56.4116C29.496 56.4116 29.4978 56.4108 29.5 56.4108C29.5018 56.4108 29.5035 56.4116 29.5055 56.4116C29.8806 56.4119 30.2521 56.3381 30.5986 56.1943C30.9452 56.0508 31.26 55.8402 31.5248 55.5746L58.179 28.9211C58.7075 28.384 59.0026 27.6599 59 26.9063C58.9968 26.1529 58.6957 25.4319 58.163 24.8991C57.6303 24.3661 56.9086 24.0652 56.155 24.0621C55.4018 24.0591 54.6778 24.3539 54.141 24.8823L40.8631 38.1596C40.8439 38.1777 40.8208 38.1904 40.802 38.2091L29.5 49.5112L18.1972 38.2091C18.179 38.1909 18.1564 38.1787 18.1377 38.1611L4.85902 24.8823C4.32188 24.3539 3.59771 24.0591 2.84422 24.0621Z" fill="#2F5EA5"/>
</svg>
