<svg width="59" height="59" viewBox="0 0 59 59" fill="none" xmlns="http://www.w3.org/2000/svg">
<g clip-path="url(#clip0_418_117)">
<path d="M54.5718 45.4742L30.5541 59.0005V48.4653L45.5185 40.2697L54.5718 45.4742ZM56.2147 43.9929V15.7048L47.4257 20.7552V38.9371L56.2147 43.9929ZM4.42818 45.4742L28.4459 59.0005V48.4653L13.4815 40.2697L4.42818 45.4742ZM2.78528 43.9929V15.7048L11.5741 20.7552V38.9371L2.78528 43.9929ZM3.8136 13.8746L28.4459 -0.000244141V10.1856L12.6653 18.8274L12.5451 18.8962L3.8136 13.8746ZM55.1866 13.8746L30.5541 -0.000244141V10.1856L46.3347 18.8276L46.4549 18.8965L55.1866 13.8746ZM28.4461 46.0689L13.6823 37.9876V21.9736L28.4456 30.461L28.4461 46.0689ZM30.5541 46.0689L45.3172 37.9876V21.9736L30.5541 30.461V46.0689ZM14.6821 20.1202L29.5027 12.004L44.3237 20.1202L29.5029 28.642L14.6821 20.1202Z" fill="#2F5EA5"/>
</g>
<defs>
<clipPath id="clip0_418_117">
<rect width="59" height="59" fill="white"/>
</clipPath>
</defs>
</svg>
